<svg width="33" height="33" viewBox="0 0 33 33" fill="none" xmlns="http://www.w3.org/2000/svg">
<path fill-rule="evenodd" clip-rule="evenodd" d="M16.9891 0.473633C25.8256 0.473633 32.9891 7.63712 32.9891 16.4735C32.9891 25.3101 25.8256 32.4736 16.9891 32.4736C8.15254 32.4736 0.98912 25.3101 0.98912 16.4735C0.98912 7.63712 8.15254 0.473633 16.9891 0.473633Z" fill="#070716"/>
<g clip-path="url(#clip0)">
<path d="M19.3286 10.4746H20.9474V7.61259C20.6681 7.57359 19.7076 7.48584 18.589 7.48584C16.255 7.48584 14.6561 8.97609 14.6561 11.7151V14.2358H12.0805V17.4353H14.6561V25.4858H17.8139V17.4361H20.2854L20.6777 14.2366H17.8132V12.0323C17.8139 11.1076 18.0592 10.4746 19.3286 10.4746Z" fill="white"/>
</g>
<defs>
<clipPath id="clip0">
<rect width="17.7323" height="18" fill="white" transform="translate(7.50923 7.48584)"/>
</clipPath>
</defs>
</svg>
