<svg width="35" height="36" viewBox="0 0 35 36" fill="none" xmlns="http://www.w3.org/2000/svg">
<path fill-rule="evenodd" clip-rule="evenodd" d="M17.9891 2.47342C26.8256 2.47342 33.9891 9.6369 33.9891 18.4732C33.9891 27.3099 26.8256 34.4734 17.9891 34.4734C9.15254 34.4734 1.98912 27.3099 1.98912 18.4732C1.98912 9.6369 9.15254 2.47342 17.9891 2.47342Z" fill="#070716"/>
<g clip-path="url(#clip0)">
<path d="M25.9843 15.1899C25.9469 14.3397 25.8094 13.7553 25.6124 13.2488C25.4093 12.7113 25.0967 12.23 24.6872 11.8299C24.2871 11.4235 23.8026 11.1078 23.2713 10.9078C22.7619 10.7109 22.1805 10.5734 21.3304 10.5359C20.4739 10.4952 20.202 10.4858 18.0297 10.4858C15.8574 10.4858 15.5855 10.4952 14.7321 10.5327C13.882 10.5702 13.2975 10.7078 12.7912 10.9046C12.2535 11.1078 11.7722 11.4203 11.3721 11.8299C10.9658 12.23 10.6502 12.7144 10.4501 13.2458C10.2531 13.7553 10.1156 14.3366 10.0782 15.1867C10.0375 16.0432 10.0281 16.3151 10.0281 18.4874C10.0281 20.6597 10.0375 20.9316 10.075 21.7849C10.1125 22.6351 10.2501 23.2195 10.447 23.726C10.6502 24.2636 10.9658 24.7449 11.3721 25.145C11.7722 25.5513 12.2567 25.867 12.788 26.067C13.2975 26.2639 13.8788 26.4014 14.7291 26.4389C15.5823 26.4765 15.8543 26.4858 18.0266 26.4858C20.1989 26.4858 20.4708 26.4765 21.3241 26.4389C22.1743 26.4014 22.7587 26.2639 23.2651 26.067C24.3403 25.6513 25.1905 24.8011 25.6062 23.726C25.803 23.2165 25.9406 22.6351 25.9781 21.7849C26.0156 20.9316 26.025 20.6597 26.025 18.4874C26.025 16.3151 26.0218 16.0432 25.9843 15.1899ZM24.5435 21.7224C24.5091 22.5038 24.3778 22.9258 24.2684 23.2071C23.9996 23.9041 23.4464 24.4573 22.7493 24.7262C22.468 24.8356 22.043 24.9668 21.2647 25.0011C20.4208 25.0387 20.1677 25.048 18.0328 25.048C15.898 25.048 15.6418 25.0387 14.8009 25.0011C14.0195 24.9668 13.5975 24.8356 13.3162 24.7262C12.9694 24.598 12.6536 24.3948 12.3973 24.1291C12.1317 23.8697 11.9285 23.5571 11.8003 23.2102C11.6909 22.9289 11.5597 22.5038 11.5253 21.7256C11.4877 20.8817 11.4785 20.6284 11.4785 18.4936C11.4785 16.3588 11.4877 16.1025 11.5253 15.2618C11.5597 14.4804 11.6909 14.0584 11.8003 13.7771C11.9285 13.4301 12.1317 13.1145 12.4005 12.8581C12.6598 12.5925 12.9724 12.3893 13.3194 12.2612C13.6007 12.1518 14.0258 12.0206 14.8041 11.9861C15.648 11.9487 15.9012 11.9392 18.0359 11.9392C20.1739 11.9392 20.427 11.9487 21.2678 11.9861C22.0492 12.0206 22.4712 12.1518 22.7525 12.2612C23.0994 12.3893 23.4151 12.5925 23.6714 12.8581C23.9371 13.1176 24.1402 13.4301 24.2684 13.7771C24.3778 14.0584 24.5091 14.4834 24.5435 15.2618C24.581 16.1057 24.5904 16.3588 24.5904 18.4936C24.5904 20.6284 24.581 20.8785 24.5435 21.7224Z" fill="white"/>
<path d="M18.0297 14.3774C15.7606 14.3774 13.9195 16.2184 13.9195 18.4876C13.9195 20.7569 15.7606 22.5978 18.0297 22.5978C20.2989 22.5978 22.1398 20.7569 22.1398 18.4876C22.1398 16.2184 20.2989 14.3774 18.0297 14.3774ZM18.0297 21.1538C16.5576 21.1538 15.3635 19.9598 15.3635 18.4876C15.3635 17.0154 16.5576 15.8214 18.0297 15.8214C19.5019 15.8214 20.6958 17.0154 20.6958 18.4876C20.6958 19.9598 19.5019 21.1538 18.0297 21.1538Z" fill="white"/>
<path d="M23.262 14.2144C23.262 14.7443 22.8324 15.174 22.3023 15.174C21.7725 15.174 21.3428 14.7443 21.3428 14.2144C21.3428 13.6844 21.7725 13.2549 22.3023 13.2549C22.8324 13.2549 23.262 13.6844 23.262 14.2144Z" fill="white"/>
</g>
<defs>
<clipPath id="clip0">
<rect width="16" height="16" fill="white" transform="translate(10 10.4858)"/>
</clipPath>
</defs>
</svg>
