<svg width="35" height="36" viewBox="0 0 35 36" fill="none" xmlns="http://www.w3.org/2000/svg">
<path fill-rule="evenodd" clip-rule="evenodd" d="M17.9891 2.47342C26.8257 2.47342 33.9891 9.6369 33.9891 18.4732C33.9891 27.3099 26.8257 34.4734 17.9891 34.4734C9.15257 34.4734 1.98912 27.3099 1.98912 18.4732C1.98912 9.6369 9.15257 2.47342 17.9891 2.47342Z" fill="#070716"/>
<g clip-path="url(#clip0)">
<path d="M23.6 11.4858H12.4C11.63 11.4858 11 12.1158 11 12.8858V24.0858C11 24.8558 11.63 25.4858 12.4 25.4858H23.6C24.37 25.4858 25 24.8558 25 24.0858V12.8858C25 12.1158 24.37 11.4858 23.6 11.4858ZM15.2 23.3858H13.1V17.0858H15.2V23.3858ZM14.15 15.8958C13.45 15.8958 12.89 15.3358 12.89 14.6358C12.89 13.9358 13.45 13.3758 14.15 13.3758C14.85 13.3758 15.41 13.9358 15.41 14.6358C15.41 15.3358 14.85 15.8958 14.15 15.8958ZM22.9 23.3858H20.8V19.6758C20.8 19.1159 20.31 18.6258 19.75 18.6258C19.19 18.6258 18.7 19.1159 18.7 19.6758V23.3858H16.6V17.0858H18.7V17.9258C19.05 17.3658 19.82 16.9458 20.45 16.9458C21.78 16.9458 22.9 18.0658 22.9 19.3958V23.3858Z" fill="white"/>
</g>
<defs>
<clipPath id="clip0">
<rect width="14" height="14" fill="white" transform="translate(11 11.4858)"/>
</clipPath>
</defs>
</svg>
