<svg width="35" height="36" viewBox="0 0 35 36" fill="none" xmlns="http://www.w3.org/2000/svg">
<path fill-rule="evenodd" clip-rule="evenodd" d="M17.9891 2.47342C26.8256 2.47342 33.989 9.6369 33.989 18.4732C33.989 27.3099 26.8256 34.4734 17.9891 34.4734C9.1525 34.4734 1.98905 27.3099 1.98905 18.4732C1.98905 9.6369 9.1525 2.47342 17.9891 2.47342Z" fill="#070716"/>
<g clip-path="url(#clip0)">
<path d="M28 12.2846C27.2563 12.6108 26.4637 12.8271 25.6375 12.9321C26.4875 12.4246 27.1363 11.6271 27.4412 10.6658C26.6488 11.1383 25.7738 11.4721 24.8412 11.6583C24.0887 10.8571 23.0162 10.3608 21.8462 10.3608C19.5763 10.3608 17.7487 12.2033 17.7487 14.4621C17.7487 14.7871 17.7762 15.0996 17.8438 15.3971C14.435 15.2308 11.4188 13.5971 9.3925 11.1083C9.03875 11.7221 8.83125 12.4246 8.83125 13.1808C8.83125 14.6008 9.5625 15.8596 10.6525 16.5883C9.99375 16.5758 9.3475 16.3846 8.8 16.0833C8.8 16.0958 8.8 16.1121 8.8 16.1283C8.8 18.1208 10.2212 19.7758 12.085 20.1571C11.7512 20.2483 11.3875 20.2921 11.01 20.2921C10.7475 20.2921 10.4825 20.2771 10.2337 20.2221C10.765 21.8458 12.2725 23.0396 14.065 23.0783C12.67 24.1696 10.8988 24.8271 8.98125 24.8271C8.645 24.8271 8.3225 24.8121 8 24.7708C9.81625 25.9421 11.9688 26.6108 14.29 26.6108C21.835 26.6108 25.96 20.3608 25.96 14.9433C25.96 14.7621 25.9538 14.5871 25.945 14.4133C26.7588 13.8358 27.4425 13.1146 28 12.2846Z" fill="white"/>
</g>
<defs>
<clipPath id="clip0">
<rect width="20" height="20" fill="white" transform="translate(8 8.48584)"/>
</clipPath>
</defs>
</svg>
